<svg width="1080" height="1080" viewBox="0 0 1080 1080" fill="none" xmlns="http://www.w3.org/2000/svg">
<rect width="1080" height="1080" />
<g filter="url(#filter0_d_423_20)">
<path d="M486.232 619.141C486.232 626.541 483.414 633.908 477.779 639.545C466.508 650.816 448.243 650.816 436.971 639.545C431.337 633.908 428.519 626.541 428.519 619.141C428.519 614.15 429.842 609.16 432.423 604.714C433.611 602.575 435.139 600.572 436.971 598.74C442.606 593.103 450.009 590.287 457.375 590.287C464.742 590.287 472.142 593.106 477.779 598.74C479.611 600.572 481.14 602.575 482.328 604.714C484.909 609.16 486.232 614.15 486.232 619.141Z" fill="#006837"/>
<path opacity="0.25" d="M432.423 633.564C433.611 631.426 435.139 629.422 436.971 627.59C448.243 616.319 466.508 616.319 477.776 627.59C479.608 629.422 481.136 631.426 482.324 633.564C481.136 635.703 479.608 637.707 477.776 639.539C466.505 650.81 448.24 650.81 436.971 639.539C435.139 637.707 433.611 635.703 432.423 633.564Z" fill="white"/>
<path opacity="0.25" d="M482.328 604.708H432.423C433.611 602.569 435.139 600.566 436.971 598.734C442.605 593.097 450.008 590.281 457.375 590.281C464.742 590.281 472.142 593.1 477.779 598.734C479.611 600.566 481.139 602.569 482.328 604.708Z" fill="black"/>
<path d="M651.426 619.141C651.426 626.541 648.607 633.908 642.973 639.545C631.702 650.816 613.437 650.816 602.168 639.545C596.534 633.908 593.715 626.541 593.715 619.141C593.715 614.15 595.006 609.16 597.62 604.714C598.808 602.575 600.336 600.572 602.168 598.74C607.805 593.103 615.205 590.287 622.572 590.287C629.939 590.287 637.339 593.106 642.976 598.74C644.808 600.572 646.336 602.575 647.524 604.714C650.139 609.16 651.426 614.15 651.426 619.141Z" fill="#006837"/>
<path opacity="0.25" d="M597.623 633.564C598.811 631.426 600.339 629.422 602.171 627.59C613.442 616.319 631.707 616.319 642.976 627.59C644.808 629.422 646.336 631.426 647.524 633.564C646.336 635.703 644.808 637.707 642.976 639.539C631.704 650.81 613.439 650.81 602.171 639.539C600.339 637.707 598.811 635.703 597.623 633.564Z" fill="white"/>
<path opacity="0.25" d="M647.524 604.708H597.62C598.808 602.569 600.336 600.566 602.168 598.734C607.805 593.097 615.205 590.281 622.572 590.281C629.939 590.281 637.339 593.1 642.976 598.734C644.808 600.566 646.336 602.569 647.524 604.708Z" fill="black"/>
<path d="M363.135 301.709L349.045 316.136L334.955 330.563L295.268 371.166C284.948 360.743 278.564 346.419 278.564 330.563L292.654 316.136L306.744 301.709L346.431 261.105C356.751 271.529 363.135 285.856 363.135 301.709Z" fill="#006837"/>
<path opacity="0.25" d="M363.133 301.707L349.043 316.134H292.656L306.743 301.707H363.133Z" fill="black"/>
<path d="M751.272 474.847L687.855 489.274L624.438 503.7L401.157 554.523C401.124 554.523 401.124 554.523 401.124 554.523C383.064 544.746 370.809 525.666 370.809 503.7L497.64 474.844L720.956 424.021C738.984 433.804 751.272 452.881 751.272 474.847Z" fill="#006837"/>
<path opacity="0.25" d="M751.272 474.846L687.855 489.276H434.223L497.64 474.846H751.272Z" fill="black"/>
<path d="M801.382 388.28L722.62 402.707L643.826 417.137L360.964 468.943C341.85 459.573 328.678 439.882 328.678 417.137L407.472 402.707L486.234 388.28L769.096 336.475C788.209 345.842 801.382 365.533 801.382 388.28Z" fill="#006837"/>
<path opacity="0.25" d="M801.382 388.281L722.621 402.708H407.473L486.234 388.281H801.382Z" fill="black"/>
<path d="M363.134 301.714H222.857C206.935 301.714 194 288.779 194 272.857C194 264.912 197.225 257.681 202.453 252.453C207.681 247.225 214.879 244 222.857 244H305.421C321.445 244 335.974 250.552 346.43 261.11C349.893 264.606 352.916 268.546 355.391 272.857C360.316 281.31 363.134 291.188 363.134 301.714Z" fill="#408E69"/>
<path d="M355.394 272.857H194.003C194.003 264.912 197.228 257.681 202.456 252.453C207.684 247.225 214.882 244 222.86 244H305.423C321.448 244 335.977 250.552 346.433 261.11C349.892 264.609 352.916 268.546 355.394 272.857Z" fill="#8CC63F"/>
<path d="M801.38 388.286H336.28C320.256 388.286 305.727 381.734 295.27 371.176C291.808 367.68 288.785 363.743 286.309 359.429C281.385 350.976 278.569 341.098 278.569 330.572H743.669C752.802 330.572 761.423 332.678 769.097 336.48C779.384 341.504 787.939 349.55 793.643 359.429C798.561 367.915 801.38 377.761 801.38 388.286Z" fill="#8CC63F"/>
<path opacity="0.5" d="M793.637 359.429H286.306C281.382 350.976 278.566 341.098 278.566 330.572H743.666C752.799 330.572 761.42 332.678 769.094 336.48C779.378 341.504 787.933 349.55 793.637 359.429Z" fill="black"/>
<path d="M751.273 474.852H386.391C377.259 474.852 368.638 472.747 360.964 468.944C350.679 463.921 342.121 455.874 336.418 445.996C331.496 437.507 328.678 427.664 328.678 417.139H693.559C703.471 417.139 712.808 419.65 720.957 424.03C730.36 429.123 738.169 436.761 743.566 445.996C748.454 454.451 751.273 464.33 751.273 474.852Z" fill="#39B54A"/>
<path opacity="0.5" d="M743.566 445.996H336.418C331.496 437.507 328.678 427.664 328.678 417.139H693.559C703.471 417.139 712.808 419.65 720.957 424.03C730.36 429.123 738.169 436.764 743.566 445.996Z" fill="black"/>
<path d="M709.141 532.566C709.141 548.488 696.239 561.423 680.284 561.423H428.52C418.605 561.423 409.304 558.944 401.158 554.531C401.125 554.531 401.125 554.531 401.125 554.531C391.722 549.438 383.88 541.801 378.516 532.566C373.628 524.113 370.81 514.234 370.81 503.709H680.287C696.242 503.709 709.141 516.644 709.141 532.566Z" fill="#009245"/>
<path opacity="0.5" d="M709.141 532.566H378.513C373.625 524.113 370.807 514.234 370.807 503.709H680.284C696.243 503.709 709.141 516.644 709.141 532.566Z" fill="black"/>
</g>
<g filter="url(#filter1_d_423_20)">
<path d="M155.724 728C155.592 726.343 154.97 725.05 153.86 724.122C152.766 723.194 151.101 722.73 148.864 722.73C147.438 722.73 146.27 722.904 145.359 723.252C144.464 723.584 143.801 724.039 143.37 724.619C142.939 725.199 142.715 725.862 142.699 726.608C142.666 727.221 142.773 727.776 143.022 728.273C143.287 728.754 143.701 729.193 144.265 729.591C144.828 729.972 145.549 730.32 146.428 730.635C147.306 730.95 148.35 731.232 149.56 731.48L153.736 732.375C156.553 732.972 158.964 733.759 160.969 734.737C162.975 735.714 164.615 736.866 165.891 738.192C167.167 739.501 168.104 740.976 168.7 742.616C169.313 744.257 169.628 746.047 169.645 747.986C169.628 751.333 168.791 754.167 167.134 756.487C165.477 758.807 163.107 760.572 160.025 761.782C156.959 762.992 153.272 763.597 148.963 763.597C144.538 763.597 140.677 762.942 137.379 761.633C134.098 760.324 131.546 758.31 129.723 755.592C127.917 752.858 127.005 749.361 126.989 745.102H140.114C140.196 746.66 140.586 747.969 141.282 749.03C141.978 750.09 142.956 750.894 144.215 751.441C145.491 751.988 147.008 752.261 148.764 752.261C150.239 752.261 151.474 752.079 152.468 751.714C153.462 751.35 154.216 750.844 154.73 750.198C155.244 749.552 155.509 748.814 155.526 747.986C155.509 747.207 155.252 746.527 154.755 745.947C154.274 745.351 153.479 744.821 152.369 744.357C151.258 743.876 149.759 743.429 147.869 743.014L142.798 741.92C138.291 740.943 134.736 739.31 132.134 737.023C129.549 734.72 128.265 731.58 128.281 727.602C128.265 724.371 129.126 721.545 130.866 719.126C132.623 716.69 135.051 714.792 138.15 713.433C141.265 712.074 144.837 711.395 148.864 711.395C152.973 711.395 156.528 712.083 159.528 713.458C162.527 714.834 164.839 716.772 166.463 719.275C168.104 721.761 168.932 724.669 168.949 728H155.724ZM172.814 712.091H188.226L198.169 732.773H198.567L208.51 712.091H223.922L205.229 746.991V763H191.507V746.991L172.814 712.091ZM228.428 763V712.091H250.402C254.181 712.091 257.487 712.779 260.32 714.154C263.154 715.53 265.358 717.51 266.933 720.095C268.507 722.68 269.294 725.779 269.294 729.392C269.294 733.038 268.482 736.112 266.858 738.614C265.251 741.117 262.989 743.006 260.072 744.282C257.172 745.558 253.783 746.196 249.905 746.196H236.78V735.457H247.121C248.745 735.457 250.129 735.259 251.272 734.861C252.432 734.446 253.319 733.792 253.932 732.897C254.562 732.002 254.877 730.834 254.877 729.392C254.877 727.934 254.562 726.749 253.932 725.837C253.319 724.909 252.432 724.23 251.272 723.799C250.129 723.352 248.745 723.128 247.121 723.128H242.249V763H228.428ZM258.257 739.634L270.985 763H255.97L243.541 739.634H258.257ZM289.007 712.091V763H275.186V712.091H289.007ZM308.781 763H293.866L310.67 712.091H329.562L346.366 763H331.452L320.315 726.111H319.917L308.781 763ZM305.997 742.915H334.037V753.256H305.997V742.915ZM395.318 712.091V763H383.784L365.389 736.253H365.091V763H351.27V712.091H363.002L381.099 738.739H381.497V712.091H395.318Z" fill="#8CC63F"/>
<path d="M443.244 728C443.111 726.343 442.49 725.05 441.38 724.122C440.286 723.194 438.62 722.73 436.383 722.73C434.958 722.73 433.79 722.904 432.878 723.252C431.983 723.584 431.32 724.039 430.89 724.619C430.459 725.199 430.235 725.862 430.218 726.608C430.185 727.221 430.293 727.776 430.542 728.273C430.807 728.754 431.221 729.193 431.784 729.591C432.348 729.972 433.069 730.32 433.947 730.635C434.825 730.95 435.869 731.232 437.079 731.48L441.255 732.375C444.073 732.972 446.484 733.759 448.489 734.737C450.494 735.714 452.135 736.866 453.411 738.192C454.687 739.501 455.623 740.976 456.22 742.616C456.833 744.257 457.148 746.047 457.164 747.986C457.148 751.333 456.311 754.167 454.654 756.487C452.997 758.807 450.627 760.572 447.544 761.782C444.479 762.992 440.791 763.597 436.483 763.597C432.058 763.597 428.197 762.942 424.899 761.633C421.618 760.324 419.065 758.31 417.243 755.592C415.436 752.858 414.525 749.361 414.508 745.102H427.633C427.716 746.66 428.105 747.969 428.801 749.03C429.498 750.09 430.475 750.894 431.735 751.441C433.011 751.988 434.527 752.261 436.284 752.261C437.759 752.261 438.993 752.079 439.988 751.714C440.982 751.35 441.736 750.844 442.25 750.198C442.763 749.552 443.029 748.814 443.045 747.986C443.029 747.207 442.772 746.527 442.275 745.947C441.794 745.351 440.998 744.821 439.888 744.357C438.778 743.876 437.278 743.429 435.389 743.014L430.318 741.92C425.81 740.943 422.256 739.31 419.654 737.023C417.069 734.72 415.784 731.58 415.801 727.602C415.784 724.371 416.646 721.545 418.386 719.126C420.143 716.69 422.57 714.792 425.669 713.433C428.785 712.074 432.356 711.395 436.383 711.395C440.493 711.395 444.048 712.083 447.047 713.458C450.047 714.834 452.359 716.772 453.983 719.275C455.623 721.761 456.452 724.669 456.468 728H443.244ZM492.55 712.091H506.371V744.705C506.371 748.582 505.443 751.938 503.587 754.772C501.747 757.589 499.179 759.768 495.881 761.31C492.583 762.834 488.755 763.597 484.396 763.597C480.005 763.597 476.16 762.834 472.862 761.31C469.564 759.768 466.996 757.589 465.156 754.772C463.333 751.938 462.422 748.582 462.422 744.705V712.091H476.243V743.511C476.243 745.086 476.591 746.494 477.287 747.737C477.983 748.964 478.944 749.925 480.17 750.621C481.413 751.317 482.822 751.665 484.396 751.665C485.987 751.665 487.396 751.317 488.622 750.621C489.848 749.925 490.81 748.964 491.506 747.737C492.202 746.494 492.55 745.086 492.55 743.511V712.091ZM512.939 763V712.091H534.914C538.692 712.091 541.998 712.837 544.832 714.328C547.666 715.82 549.87 717.916 551.444 720.617C553.019 723.318 553.806 726.475 553.806 730.088C553.806 733.734 552.994 736.891 551.37 739.559C549.762 742.227 547.5 744.282 544.584 745.724C541.684 747.165 538.295 747.886 534.417 747.886H521.292V737.148H531.633C533.257 737.148 534.64 736.866 535.784 736.303C536.944 735.723 537.831 734.902 538.444 733.842C539.073 732.781 539.388 731.53 539.388 730.088C539.388 728.63 539.073 727.387 538.444 726.359C537.831 725.315 536.944 724.52 535.784 723.973C534.64 723.41 533.257 723.128 531.633 723.128H526.76V763H512.939ZM558.877 763V712.091H595.567V723.227H572.698V731.977H593.678V743.114H572.698V751.864H595.468V763H558.877ZM602.422 763V712.091H624.396C628.175 712.091 631.481 712.779 634.315 714.154C637.148 715.53 639.353 717.51 640.927 720.095C642.501 722.68 643.288 725.779 643.288 729.392C643.288 733.038 642.476 736.112 640.852 738.614C639.245 741.117 636.983 743.006 634.066 744.282C631.166 745.558 627.777 746.196 623.899 746.196H610.774V735.457H621.115C622.739 735.457 624.123 735.259 625.266 734.861C626.426 734.446 627.313 733.792 627.926 732.897C628.556 732.002 628.871 730.834 628.871 729.392C628.871 727.934 628.556 726.749 627.926 725.837C627.313 724.909 626.426 724.23 625.266 723.799C624.123 723.352 622.739 723.128 621.115 723.128H616.243V763H602.422ZM632.251 739.634L644.979 763H629.964L617.536 739.634H632.251ZM649.18 712.091H666.381L678.214 740.926H678.81L690.643 712.091H707.844V763H694.322V733.568H693.924L682.589 762.602H674.435L663.1 733.369H662.702V763H649.18V712.091ZM727.619 763H712.704L729.508 712.091H748.4L765.204 763H750.289L739.153 726.111H738.755L727.619 763ZM724.835 742.915H752.875V753.256H724.835V742.915ZM770.107 763V712.091H792.082C795.86 712.091 799.166 712.779 802 714.154C804.834 715.53 807.038 717.51 808.612 720.095C810.187 722.68 810.974 725.779 810.974 729.392C810.974 733.038 810.162 736.112 808.538 738.614C806.93 741.117 804.668 743.006 801.752 744.282C798.852 745.558 795.463 746.196 791.585 746.196H778.46V735.457H788.801C790.425 735.457 791.808 735.259 792.952 734.861C794.112 734.446 794.999 733.792 795.612 732.897C796.241 732.002 796.556 730.834 796.556 729.392C796.556 727.934 796.241 726.749 795.612 725.837C794.999 724.909 794.112 724.23 792.952 723.799C791.808 723.352 790.425 723.128 788.801 723.128H783.928V763H770.107ZM799.937 739.634L812.664 763H797.65L785.221 739.634H799.937ZM816.865 763V712.091H830.686V732.673H831.382L846.695 712.091H862.803L845.601 734.761L863.2 763H846.695L835.26 743.909L830.686 749.875V763H816.865ZM866.904 763V712.091H903.595V723.227H880.725V731.977H901.705V743.114H880.725V751.864H903.495V763H866.904ZM909.057 723.227V712.091H953.304V723.227H937.992V763H924.37V723.227H909.057Z" fill="#009245"/>
</g>
<defs>
<filter id="filter0_d_423_20" x="190" y="244" width="615.382" height="411.998" filterUnits="userSpaceOnUse" color-interpolation-filters="sRGB">
<feFlood flood-opacity="0" result="BackgroundImageFix"/>
<feColorMatrix in="SourceAlpha" type="matrix" values="0 0 0 0 0 0 0 0 0 0 0 0 0 0 0 0 0 0 127 0" result="hardAlpha"/>
<feOffset dy="4"/>
<feGaussianBlur stdDeviation="2"/>
<feComposite in2="hardAlpha" operator="out"/>
<feColorMatrix type="matrix" values="0 0 0 0 0 0 0 0 0 0 0 0 0 0 0 0 0 0 0.25 0"/>
<feBlend mode="normal" in2="BackgroundImageFix" result="effect1_dropShadow_423_20"/>
<feBlend mode="normal" in="SourceGraphic" in2="effect1_dropShadow_423_20" result="shape"/>
</filter>
<filter id="filter1_d_423_20" x="122.988" y="711.395" width="834.316" height="60.2012" filterUnits="userSpaceOnUse" color-interpolation-filters="sRGB">
<feFlood flood-opacity="0" result="BackgroundImageFix"/>
<feColorMatrix in="SourceAlpha" type="matrix" values="0 0 0 0 0 0 0 0 0 0 0 0 0 0 0 0 0 0 127 0" result="hardAlpha"/>
<feOffset dy="4"/>
<feGaussianBlur stdDeviation="2"/>
<feComposite in2="hardAlpha" operator="out"/>
<feColorMatrix type="matrix" values="0 0 0 0 0 0 0 0 0 0 0 0 0 0 0 0 0 0 0.25 0"/>
<feBlend mode="normal" in2="BackgroundImageFix" result="effect1_dropShadow_423_20"/>
<feBlend mode="normal" in="SourceGraphic" in2="effect1_dropShadow_423_20" result="shape"/>
</filter>
</defs>
</svg>
